<svg xmlns="http://www.w3.org/2000/svg" width="256" height="256" viewBox="0 0 256 256" role="img" aria-labelledby="title-pattern-corner-grid-plum-rose">
  <title id="title-pattern-corner-grid-plum-rose">Pattern Corner Grid Plum Rose</title>
  <rect width="256" height="256" rx="28" fill="#fff9fb"/>
  <rect x="34" y="34" width="188" height="188" rx="20" fill="#fff0f6"/>
  <path d="M48 204L204 48M80 220L220 80M28 156L156 28" stroke="#f06595" stroke-width="5" stroke-linecap="round" opacity=".45"/>
  <circle cx="48" cy="48" r="5" fill="#f06595" opacity=".75"/> <circle cx="76" cy="48" r="5" fill="#35243b" opacity=".22"/> <circle cx="104" cy="48" r="5" fill="#35243b" opacity=".22"/> <circle cx="132" cy="48" r="5" fill="#f06595" opacity=".75"/> <circle cx="160" cy="48" r="5" fill="#35243b" opacity=".22"/> <circle cx="48" cy="76" r="5" fill="#35243b" opacity=".22"/> <circle cx="76" cy="76" r="5" fill="#35243b" opacity=".22"/> <circle cx="104" cy="76" r="5" fill="#f06595" opacity=".75"/> <circle cx="132" cy="76" r="5" fill="#35243b" opacity=".22"/> <circle cx="160" cy="76" r="5" fill="#35243b" opacity=".22"/> <circle cx="48" cy="104" r="5" fill="#35243b" opacity=".22"/> <circle cx="76" cy="104" r="5" fill="#f06595" opacity=".75"/> <circle cx="104" cy="104" r="5" fill="#35243b" opacity=".22"/> <circle cx="132" cy="104" r="5" fill="#35243b" opacity=".22"/> <circle cx="160" cy="104" r="5" fill="#f06595" opacity=".75"/> <circle cx="48" cy="132" r="5" fill="#f06595" opacity=".75"/> <circle cx="76" cy="132" r="5" fill="#35243b" opacity=".22"/> <circle cx="104" cy="132" r="5" fill="#35243b" opacity=".22"/> <circle cx="132" cy="132" r="5" fill="#f06595" opacity=".75"/> <circle cx="160" cy="132" r="5" fill="#35243b" opacity=".22"/> <circle cx="48" cy="160" r="5" fill="#35243b" opacity=".22"/> <circle cx="76" cy="160" r="5" fill="#35243b" opacity=".22"/> <circle cx="104" cy="160" r="5" fill="#f06595" opacity=".75"/> <circle cx="132" cy="160" r="5" fill="#35243b" opacity=".22"/> <circle cx="160" cy="160" r="5" fill="#35243b" opacity=".22"/>
</svg>
