<svg xmlns="http://www.w3.org/2000/svg" width="256" height="256" viewBox="0 0 256 256" role="img" aria-labelledby="title-pattern-marker-lines-navy-sky">
  <title id="title-pattern-marker-lines-navy-sky">Pattern Marker Lines Navy Sky</title>
  <rect width="256" height="256" rx="28" fill="#f7fbff"/>
  <rect x="34" y="34" width="188" height="188" rx="20" fill="#e7f5ff"/>
  <path d="M48 204L204 48M80 220L220 80M28 156L156 28" stroke="#4dabf7" stroke-width="5" stroke-linecap="round" opacity=".45"/>
  <circle cx="48" cy="48" r="5" fill="#183153" opacity=".22"/> <circle cx="74" cy="48" r="5" fill="#4dabf7" opacity=".75"/> <circle cx="100" cy="48" r="5" fill="#183153" opacity=".22"/> <circle cx="126" cy="48" r="5" fill="#183153" opacity=".22"/> <circle cx="152" cy="48" r="5" fill="#4dabf7" opacity=".75"/> <circle cx="48" cy="74" r="5" fill="#4dabf7" opacity=".75"/> <circle cx="74" cy="74" r="5" fill="#183153" opacity=".22"/> <circle cx="100" cy="74" r="5" fill="#183153" opacity=".22"/> <circle cx="126" cy="74" r="5" fill="#4dabf7" opacity=".75"/> <circle cx="152" cy="74" r="5" fill="#183153" opacity=".22"/> <circle cx="48" cy="100" r="5" fill="#183153" opacity=".22"/> <circle cx="74" cy="100" r="5" fill="#183153" opacity=".22"/> <circle cx="100" cy="100" r="5" fill="#4dabf7" opacity=".75"/> <circle cx="126" cy="100" r="5" fill="#183153" opacity=".22"/> <circle cx="152" cy="100" r="5" fill="#183153" opacity=".22"/> <circle cx="48" cy="126" r="5" fill="#183153" opacity=".22"/> <circle cx="74" cy="126" r="5" fill="#4dabf7" opacity=".75"/> <circle cx="100" cy="126" r="5" fill="#183153" opacity=".22"/> <circle cx="126" cy="126" r="5" fill="#183153" opacity=".22"/> <circle cx="152" cy="126" r="5" fill="#4dabf7" opacity=".75"/> <circle cx="48" cy="152" r="5" fill="#4dabf7" opacity=".75"/> <circle cx="74" cy="152" r="5" fill="#183153" opacity=".22"/> <circle cx="100" cy="152" r="5" fill="#183153" opacity=".22"/> <circle cx="126" cy="152" r="5" fill="#4dabf7" opacity=".75"/> <circle cx="152" cy="152" r="5" fill="#183153" opacity=".22"/>
</svg>
