<svg xmlns="http://www.w3.org/2000/svg" width="256" height="256" viewBox="0 0 256 256" role="img" aria-labelledby="title-pattern-soft-stripes-plum-rose">
  <title id="title-pattern-soft-stripes-plum-rose">Pattern Soft Stripes Plum Rose</title>
  <rect width="256" height="256" rx="28" fill="#fff9fb"/>
  <rect x="34" y="34" width="188" height="188" rx="20" fill="#fff0f6"/>
  <path d="M48 204L204 48M80 220L220 80M28 156L156 28" stroke="#f06595" stroke-width="5" stroke-linecap="round" opacity=".45"/>
  <circle cx="48" cy="48" r="5" fill="#35243b" opacity=".22"/> <circle cx="75" cy="48" r="5" fill="#35243b" opacity=".22"/> <circle cx="102" cy="48" r="5" fill="#f06595" opacity=".75"/> <circle cx="129" cy="48" r="5" fill="#35243b" opacity=".22"/> <circle cx="156" cy="48" r="5" fill="#35243b" opacity=".22"/> <circle cx="48" cy="75" r="5" fill="#35243b" opacity=".22"/> <circle cx="75" cy="75" r="5" fill="#f06595" opacity=".75"/> <circle cx="102" cy="75" r="5" fill="#35243b" opacity=".22"/> <circle cx="129" cy="75" r="5" fill="#35243b" opacity=".22"/> <circle cx="156" cy="75" r="5" fill="#f06595" opacity=".75"/> <circle cx="48" cy="102" r="5" fill="#f06595" opacity=".75"/> <circle cx="75" cy="102" r="5" fill="#35243b" opacity=".22"/> <circle cx="102" cy="102" r="5" fill="#35243b" opacity=".22"/> <circle cx="129" cy="102" r="5" fill="#f06595" opacity=".75"/> <circle cx="156" cy="102" r="5" fill="#35243b" opacity=".22"/> <circle cx="48" cy="129" r="5" fill="#35243b" opacity=".22"/> <circle cx="75" cy="129" r="5" fill="#35243b" opacity=".22"/> <circle cx="102" cy="129" r="5" fill="#f06595" opacity=".75"/> <circle cx="129" cy="129" r="5" fill="#35243b" opacity=".22"/> <circle cx="156" cy="129" r="5" fill="#35243b" opacity=".22"/> <circle cx="48" cy="156" r="5" fill="#35243b" opacity=".22"/> <circle cx="75" cy="156" r="5" fill="#f06595" opacity=".75"/> <circle cx="102" cy="156" r="5" fill="#35243b" opacity=".22"/> <circle cx="129" cy="156" r="5" fill="#35243b" opacity=".22"/> <circle cx="156" cy="156" r="5" fill="#f06595" opacity=".75"/>
</svg>
