<svg xmlns="http://www.w3.org/2000/svg" width="256" height="256" viewBox="0 0 256 256" role="img" aria-labelledby="title-pattern-subtle-zigzag-navy-sky">
  <title id="title-pattern-subtle-zigzag-navy-sky">Pattern Subtle Zigzag Navy Sky</title>
  <rect width="256" height="256" rx="28" fill="#f7fbff"/>
  <rect x="34" y="34" width="188" height="188" rx="20" fill="#e7f5ff"/>
  <path d="M48 204L204 48M80 220L220 80M28 156L156 28" stroke="#4dabf7" stroke-width="5" stroke-linecap="round" opacity=".45"/>
  <circle cx="48" cy="48" r="5" fill="#183153" opacity=".22"/> <circle cx="72" cy="48" r="5" fill="#4dabf7" opacity=".75"/> <circle cx="96" cy="48" r="5" fill="#183153" opacity=".22"/> <circle cx="120" cy="48" r="5" fill="#183153" opacity=".22"/> <circle cx="144" cy="48" r="5" fill="#4dabf7" opacity=".75"/> <circle cx="48" cy="72" r="5" fill="#4dabf7" opacity=".75"/> <circle cx="72" cy="72" r="5" fill="#183153" opacity=".22"/> <circle cx="96" cy="72" r="5" fill="#183153" opacity=".22"/> <circle cx="120" cy="72" r="5" fill="#4dabf7" opacity=".75"/> <circle cx="144" cy="72" r="5" fill="#183153" opacity=".22"/> <circle cx="48" cy="96" r="5" fill="#183153" opacity=".22"/> <circle cx="72" cy="96" r="5" fill="#183153" opacity=".22"/> <circle cx="96" cy="96" r="5" fill="#4dabf7" opacity=".75"/> <circle cx="120" cy="96" r="5" fill="#183153" opacity=".22"/> <circle cx="144" cy="96" r="5" fill="#183153" opacity=".22"/> <circle cx="48" cy="120" r="5" fill="#183153" opacity=".22"/> <circle cx="72" cy="120" r="5" fill="#4dabf7" opacity=".75"/> <circle cx="96" cy="120" r="5" fill="#183153" opacity=".22"/> <circle cx="120" cy="120" r="5" fill="#183153" opacity=".22"/> <circle cx="144" cy="120" r="5" fill="#4dabf7" opacity=".75"/> <circle cx="48" cy="144" r="5" fill="#4dabf7" opacity=".75"/> <circle cx="72" cy="144" r="5" fill="#183153" opacity=".22"/> <circle cx="96" cy="144" r="5" fill="#183153" opacity=".22"/> <circle cx="120" cy="144" r="5" fill="#4dabf7" opacity=".75"/> <circle cx="144" cy="144" r="5" fill="#183153" opacity=".22"/>
</svg>
